<svg width="180" height="179" viewBox="0 0 180 179" fill="none" xmlns="http://www.w3.org/2000/svg">
<path d="M93.7217 89.6221H78.0332C78.0742 85.9307 78.3613 82.752 78.8945 80.0859C79.4688 77.3789 80.4326 74.9385 81.7861 72.7646C83.1807 70.5908 85.0264 68.4375 87.3232 66.3047C89.251 64.582 90.9326 62.9414 92.3682 61.3828C93.8037 59.8242 94.9316 58.2246 95.752 56.584C96.5723 54.9023 96.9824 53.0361 96.9824 50.9854C96.9824 48.6064 96.6133 46.6377 95.875 45.0791C95.1777 43.4795 94.1113 42.2695 92.6758 41.4492C91.2812 40.6289 89.5176 40.2188 87.3848 40.2188C85.6211 40.2188 83.9805 40.6084 82.4629 41.3877C80.9453 42.126 79.6943 43.2744 78.71 44.833C77.7666 46.3916 77.2744 48.4424 77.2334 50.9854H59.3916C59.5146 45.3662 60.8066 40.7314 63.2676 37.0811C65.7695 33.3896 69.1123 30.6621 73.2959 28.8984C77.4795 27.0938 82.1758 26.1914 87.3848 26.1914C93.127 26.1914 98.0488 27.1348 102.15 29.0215C106.252 30.8672 109.39 33.5947 111.563 37.2041C113.737 40.7725 114.824 45.1201 114.824 50.2471C114.824 53.8154 114.127 56.9941 112.732 59.7832C111.338 62.5312 109.513 65.0947 107.257 67.4736C105.001 69.8525 102.52 72.3135 99.8125 74.8564C97.4746 76.9482 95.875 79.1426 95.0137 81.4395C94.1934 83.7363 93.7627 86.4639 93.7217 89.6221ZM76.1875 108.633C76.1875 106.008 77.0898 103.834 78.8945 102.111C80.6992 100.348 83.1191 99.4658 86.1543 99.4658C89.1484 99.4658 91.5479 100.348 93.3525 102.111C95.1982 103.834 96.1211 106.008 96.1211 108.633C96.1211 111.176 95.1982 113.329 93.3525 115.093C91.5479 116.856 89.1484 117.738 86.1543 117.738C83.1191 117.738 80.6992 116.856 78.8945 115.093C77.0898 113.329 76.1875 111.176 76.1875 108.633Z" fill="#FF8F00"/>
<path d="M132.369 101.365L123.028 97.9078C123.842 95.7103 124.693 93.8734 125.581 92.3972C126.502 90.9056 127.599 89.6591 128.87 88.6579C130.165 87.6658 131.725 86.7853 133.549 86.0164C135.066 85.4115 136.418 84.8013 137.607 84.1859C138.795 83.5705 139.809 82.8629 140.649 82.0629C141.497 81.2384 142.141 80.2133 142.579 78.9874C143.089 77.5653 143.29 76.3071 143.184 75.2128C143.111 74.1029 142.735 73.1447 142.056 72.338C141.401 71.5404 140.439 70.9066 139.169 70.4366C138.118 70.048 137.058 69.9194 135.988 70.0509C134.926 70.1578 133.935 70.5687 133.016 71.2835C132.12 72.0073 131.388 73.1247 130.82 74.6358L120.196 70.7045C121.471 67.3726 123.233 64.8868 125.479 63.247C127.759 61.5916 130.333 60.6978 133.202 60.5653C136.079 60.4084 139.069 60.9038 142.17 62.0515C145.59 63.3168 148.319 64.9652 150.357 66.9968C152.404 69.0038 153.689 71.3256 154.211 73.9622C154.742 76.5742 154.459 79.4126 153.362 82.4774C152.598 84.6104 151.502 86.3569 150.075 87.7168C148.657 89.0523 147.021 90.1825 145.169 91.1074C143.317 92.0324 141.312 92.9567 139.156 93.8803C137.316 94.6156 135.894 95.5749 134.89 96.7581C133.91 97.9503 133.07 99.4859 132.369 101.365ZM117.86 108.865C118.422 107.296 119.425 106.195 120.868 105.563C122.32 104.907 123.95 104.913 125.757 105.582C127.54 106.241 128.78 107.297 129.477 108.749C130.207 110.185 130.292 111.688 129.73 113.257C129.186 114.778 128.175 115.861 126.699 116.509C125.247 117.166 123.629 117.164 121.846 116.504C120.039 115.835 118.787 114.775 118.09 113.323C117.393 111.871 117.316 110.385 117.86 108.865Z" fill="#F1D0A9"/>
<path d="M54.3778 100.843L45.0359 104.3C44.2704 102.085 43.7611 100.121 43.508 98.4101C43.2707 96.6654 43.3223 94.9942 43.6631 93.3965C44.0283 91.7898 44.6665 90.0959 45.5778 88.3149C46.357 86.8604 47.0073 85.5091 47.5285 84.2611C48.0498 83.0132 48.3791 81.8084 48.5165 80.647C48.6451 79.461 48.4899 78.255 48.0511 77.0291C47.542 75.6071 46.9009 74.5116 46.1277 73.7426C45.3702 72.94 44.4763 72.4517 43.4459 72.2777C42.44 72.0946 41.302 72.238 40.032 72.708C38.9818 73.0966 38.0882 73.691 37.3514 74.4912C36.6057 75.267 36.1066 76.2291 35.8539 77.3777C35.6257 78.5172 35.7715 79.8516 36.2913 81.3807L25.6672 85.312C24.538 81.926 24.3155 78.8708 24.9997 76.1464C25.6995 73.3885 27.1063 71.0215 29.22 69.0454C31.325 67.0448 33.9284 65.4706 37.0301 64.3229C40.4493 63.0576 43.582 62.537 46.4281 62.7611C49.2654 62.9607 51.7175 63.8997 53.7843 65.5783C55.8424 67.2324 57.42 69.5918 58.5172 72.6565C59.2808 74.7896 59.5459 76.8433 59.3123 78.8178C59.07 80.7678 58.5318 82.7023 57.6976 84.6214C56.8634 86.5405 55.9125 88.5584 54.8447 90.6749C53.9003 92.4405 53.4174 94.1047 53.396 95.6675C53.3991 97.2212 53.7263 98.9465 54.3778 100.843ZM48.0052 116.071C47.4434 114.502 47.5155 113.004 48.2215 111.576C48.9187 110.124 50.171 109.064 51.9783 108.395C53.7612 107.735 55.3786 107.734 56.8307 108.39C58.2984 109.014 59.3131 110.11 59.8749 111.679C60.4191 113.199 60.3304 114.689 59.6087 116.15C58.9116 117.602 57.6715 118.658 55.8886 119.318C54.0813 119.987 52.4516 119.993 50.9996 119.336C49.5475 118.679 48.5494 117.591 48.0052 116.071Z" fill="#F1D0A9"/>
</svg>
