<svg width="347" height="216" viewBox="0 0 347 216" fill="none" xmlns="http://www.w3.org/2000/svg">
<path d="M116.546 87.3752L116.637 120.812L145.048 137.53V157.106L100.01 130.691V77.5975L116.546 87.3752ZM116.546 53.9385V73.423L100 63.6351V44.1506L116.546 34.3628L133.173 44.1506L116.546 53.9385ZM156.913 44.1506L173.459 34.3628L190.087 44.1506L173.459 53.9385L156.913 44.1506Z" fill="white"/>
<path d="M128.502 113.881V94.3057L145.048 104.094V123.578L128.502 113.881ZM156.913 144.542L173.459 154.33L190.087 144.542V164.026L173.459 173.814L156.913 164.026V144.542ZM213.817 44.1506L230.363 34.3628L246.99 44.1506V63.6351L230.363 73.423V53.9385L213.817 44.1506ZM230.363 120.812L230.454 87.3752L247 77.5874V130.681L201.962 157.096V137.52L230.363 120.812Z" fill="white"/>
<path d="M218.498 113.882L201.952 123.578V104.094L218.498 94.3059V113.882Z" fill="white"/>
<path d="M218.498 60.8692L218.589 80.4449L190.097 97.1633V130.681L173.551 140.378L157.004 130.681V97.1633L128.512 80.4449V60.8692L145.129 51.0814L173.449 67.8808L201.941 51.0814L218.569 60.8692H218.498ZM128.502 27.4426L173.459 0.936401L218.498 27.4426L201.952 37.2305L173.459 20.431L145.048 37.2305L128.502 27.4426Z" fill="white"/>
<path d="M11.2559 156.802L11.3179 179.548L30.6452 190.921V204.238L0.00689528 186.268V150.15L11.2559 156.802ZM11.2559 134.056V147.311L0 140.652V127.397L11.2559 120.739L22.5669 127.397L11.2559 134.056ZM38.7166 127.397L49.9725 120.739L61.2835 127.397L49.9725 134.056L38.7166 127.397Z" fill="white"/>
<path d="M19.3892 174.833V161.517L30.645 168.175V181.43L19.3892 174.833ZM38.7164 195.691L49.9723 202.349L61.2833 195.691V208.946L49.9723 215.604L38.7164 208.946V195.691ZM77.4261 127.397L88.682 120.739L99.993 127.397V140.652L88.682 147.311V134.056L77.4261 127.397ZM88.682 179.548L88.744 156.802L99.9999 150.143V186.262L69.3616 204.231V190.914L88.682 179.548Z" fill="white"/>
<path d="M80.6108 174.834L69.355 181.43V168.175L80.6108 161.517V174.834Z" fill="white"/>
<path d="M80.6106 138.771L80.6726 152.087L61.2902 163.46V186.262L50.0343 192.858L38.7785 186.262V163.46L19.3961 152.087V138.771L30.7002 132.112L49.9654 143.54L69.3478 132.112L80.6588 138.771H80.6106ZM19.3892 116.031L49.9723 98L80.6106 116.031L69.3547 122.69L49.9723 111.262L30.645 122.69L19.3892 116.031Z" fill="white"/>
<path d="M258.256 156.802L258.318 179.548L277.645 190.921V204.238L247.007 186.268V150.15L258.256 156.802ZM258.256 134.056V147.311L247 140.652V127.397L258.256 120.739L269.567 127.397L258.256 134.056ZM285.717 127.397L296.972 120.739L308.283 127.397L296.972 134.056L285.717 127.397Z" fill="white"/>
<path d="M266.389 174.833V161.517L277.645 168.175V181.43L266.389 174.833ZM285.716 195.691L296.972 202.349L308.283 195.691V208.946L296.972 215.604L285.716 208.946V195.691ZM324.426 127.397L335.682 120.739L346.993 127.397V140.652L335.682 147.311V134.056L324.426 127.397ZM335.682 179.548L335.744 156.802L347 150.143V186.262L316.362 204.231V190.914L335.682 179.548Z" fill="white"/>
<path d="M327.611 174.834L316.355 181.43V168.175L327.611 161.517V174.834Z" fill="white"/>
<path d="M327.611 138.771L327.673 152.087L308.29 163.46V186.262L297.034 192.858L285.778 186.262V163.46L266.396 152.087V138.771L277.7 132.112L296.965 143.54L316.348 132.112L327.659 138.771H327.611ZM266.389 116.031L296.972 98L327.611 116.031L316.355 122.69L296.972 111.262L277.645 122.69L266.389 116.031Z" fill="white"/>
</svg>
