<svg width="368" height="205" viewBox="0 0 368 205" fill="none" xmlns="http://www.w3.org/2000/svg">
<path d="M189.168 0L187.94 4.17029V125.172L189.168 126.397L245.334 93.1962L189.168 0Z" fill="white"/>
<path d="M189.168 0L133 93.1962L189.168 126.397V67.6659V0Z" fill="white"/>
<path d="M189.168 137.031L188.476 137.875V180.977L189.168 182.997L245.369 103.848L189.168 137.031Z" fill="white"/>
<path d="M189.168 182.997V137.031L133 103.848L189.168 182.997Z" fill="white"/>
<path d="M189.168 126.397L245.334 93.1962L189.168 67.6659V126.397Z" fill="white"/>
<path d="M133 93.1962L189.168 126.397V67.6659L133 93.1962Z" fill="white"/>
<path d="M329.992 66.0265L328.363 68.5377L304.609 148.391L305.179 149.441L348.763 138.557L329.992 66.0265Z" fill="white"/>
<path d="M329.992 66.0265L274.629 116.504L305.179 149.441L316.709 110.682L329.992 66.0265Z" fill="white"/>
<path d="M303.091 156.459L302.469 156.88L294.007 185.325L294.067 186.794L346.695 145.592L303.091 156.459Z" fill="white"/>
<path d="M294.068 186.794L303.091 156.459L272.538 123.533L294.068 186.794Z" fill="white"/>
<path d="M305.179 149.441L348.763 138.557L316.708 110.682L305.179 149.441Z" fill="white"/>
<path d="M274.629 116.504L305.179 149.441L316.709 110.682L274.629 116.504Z" fill="white"/>
<path d="M37.0667 73.0354L37.0753 76.0286L60.8348 155.881L61.8855 156.448L92.4321 123.509L37.0667 73.0354Z" fill="white"/>
<path d="M37.0667 73.0354L18.2997 145.567L61.8855 156.448L50.3533 117.69L37.0667 73.0354Z" fill="white"/>
<path d="M63.9735 163.466L63.6825 164.158L72.146 192.603L72.9993 193.8L94.5462 130.532L63.9735 163.466Z" fill="white"/>
<path d="M72.9993 193.8L63.9736 163.466L20.3911 152.596L72.9993 193.8Z" fill="white"/>
<path d="M61.8854 156.448L92.4321 123.509L50.3533 117.69L61.8854 156.448Z" fill="white"/>
<path d="M18.2997 145.567L61.8855 156.448L50.3533 117.69L18.2997 145.567Z" fill="white"/>
</svg>
