<svg width="290" height="165" viewBox="0 0 290 165" fill="none" xmlns="http://www.w3.org/2000/svg">
<path fill-rule="evenodd" clip-rule="evenodd" d="M99.8773 0H190.272C193.727 0 196.606 0.576417 200.06 2.30567C204.091 4.03493 206.394 6.91703 207.545 9.22271C207.545 9.22271 207.545 9.79913 208.121 9.79913C209.848 12.6812 211 16.1397 211 20.1747C211 23.6332 210.424 27.0917 208.121 30.5502L151.12 128.541C149.969 130.847 147.666 132 144.787 132C142.484 132 140.181 130.847 138.454 128.541L82.6044 30.5502C81.4528 28.2445 79.1498 25.3624 79.1498 20.7511C78.574 16.7162 79.7255 13.2576 81.4528 9.79913C83.1801 6.34062 86.059 3.45851 90.0893 2.30567C93.5439 -2.23322e-06 97.5743 0 99.8773 0ZM137.878 13.8341H99.8773C97.5743 13.8341 96.4227 13.8341 95.847 14.4105C94.6954 14.9869 94.1197 15.5633 93.5439 16.7162C92.9681 17.2926 92.9681 18.4454 92.9681 19.5982C92.9681 20.1747 93.5439 20.7511 94.6954 23.0568L137.878 97.9913V13.8341ZM151.696 13.8341V98.5677L195.454 23.0568C196.03 21.9039 196.03 20.7511 196.03 19.5982C196.03 18.4454 196.03 17.2926 195.454 16.7162C194.879 16.1397 194.879 15.5633 194.303 15.5633L193.727 14.9869C192.576 14.4105 191.424 14.4105 189.697 14.4105H151.696V13.8341Z" fill="white"/>
<path fill-rule="evenodd" clip-rule="evenodd" d="M12.4307 82.6866L66.2532 66.6721C68.3101 66.0601 70.1263 65.8932 72.4896 66.3109C75.1957 66.6265 77.0776 67.9345 78.1717 69.1033C78.1717 69.1033 78.2738 69.4465 78.6166 69.3445C80.1557 70.7545 81.454 72.6098 82.1689 75.0122C82.7816 77.0715 83.0515 79.2327 82.2929 81.7L65.7141 150.144C65.437 151.721 64.2699 152.815 62.5558 153.325C61.1846 153.733 59.609 153.455 58.1721 152.388L7.55841 103.937C6.46429 102.768 4.58242 101.46 3.76547 98.7142C2.70782 96.4138 2.78074 94.1505 3.19648 91.7853C3.61222 89.42 4.81572 87.1939 7.01121 85.7935C8.65965 83.8086 11.0594 83.0946 12.4307 82.6866ZM37.5076 84.1914L14.8815 90.9236C13.5102 91.3316 12.8246 91.5356 12.5839 91.9808C12.0004 92.528 11.7597 92.9733 11.6211 93.7617C11.3804 94.2069 11.5846 94.8933 11.7889 95.5797C11.891 95.9229 12.3359 96.1641 13.4301 97.333L52.417 134.3L37.5076 84.1914ZM45.7352 81.7433L60.7467 132.195L73.4234 79.4824C73.5619 78.694 73.3577 78.0075 73.1535 77.3211C72.9492 76.6347 72.745 75.9483 72.3001 75.7071C71.8551 75.4659 71.753 75.1227 71.4102 75.2247L70.9652 74.9835C70.1775 74.8443 69.4918 75.0483 68.4634 75.3543L45.8373 82.0865L45.7352 81.7433Z" fill="white"/>
<path fill-rule="evenodd" clip-rule="evenodd" d="M223.816 66.6987L277.638 82.7132C279.695 83.3252 281.307 84.1784 283.058 85.8201C285.151 87.5637 286.012 89.6878 286.289 91.2646C286.289 91.2646 286.187 91.6078 286.53 91.7098C287.048 93.7319 287.121 95.9951 286.406 98.3976C285.793 100.457 284.838 102.414 282.854 104.065L231.554 152.312C230.46 153.481 228.885 153.76 227.17 153.25C225.799 152.842 224.632 151.747 224.012 150.068L208.119 81.8286C207.842 80.2518 206.981 78.1277 207.798 75.382C208.17 72.8776 209.469 71.0223 211.11 69.2691C212.751 67.5159 214.976 66.3098 217.58 66.3374C220.045 65.5766 222.445 66.2906 223.816 66.6987ZM243.991 81.6679L221.365 74.9357C219.994 74.5276 219.308 74.3236 218.863 74.5648C218.075 74.704 217.631 74.9452 217.083 75.5297C216.639 75.7709 216.434 76.4573 216.23 77.1437C216.128 77.4869 216.369 77.9321 216.646 79.509L229.082 131.776L243.991 81.6679ZM252.219 84.116L237.207 134.568L276.639 97.3595C277.186 96.7751 277.39 96.0887 277.595 95.4023C277.799 94.7159 278.003 94.0295 277.762 93.5842C277.522 93.139 277.624 92.7958 277.281 92.6938L277.04 92.2486C276.457 91.7014 275.771 91.4974 274.743 91.1914L252.117 84.4592L252.219 84.116Z" fill="white"/>
</svg>
