<svg width="39" height="45" viewBox="0 0 39 45" fill="none" xmlns="http://www.w3.org/2000/svg">
<path d="M11.0979 24.1685C10.831 24.0036 10.5744 23.8697 10.3281 23.7048C8.32363 22.3838 6.45303 20.8683 4.74354 19.1804C2.79472 17.1588 1.38283 14.6783 0.637427 11.9663C0.0707579 9.87329 -0.120218 7.69574 0.073037 5.53547C0.133917 4.34093 0.319502 3.15619 0.627152 2.00064C0.680245 1.80979 0.749113 1.62361 0.832658 1.44409C0.990316 1.02192 1.28136 0.663441 1.66145 0.423315C2.04154 0.183189 2.48952 0.0746243 2.93684 0.114592C3.78826 0.193308 4.61554 0.442297 5.36984 0.846518C8.57799 2.36103 11.1979 4.89713 12.8224 8.06061C13.3472 9.13621 13.7932 10.2487 14.157 11.3894C14.5984 12.6673 14.9884 13.9658 15.3477 15.2644C15.8381 17.0222 16.2018 18.8131 16.4358 20.6234C16.4292 20.7057 16.4292 20.7884 16.4358 20.8707C17.3664 20.4481 18.376 20.2293 19.3974 20.2293C20.4187 20.2293 21.4284 20.4481 22.3589 20.8707C22.4103 20.5203 22.4409 20.2008 22.4923 19.8401C22.8257 17.6412 23.3372 15.4731 24.0218 13.3577C24.4529 12.0489 24.8225 10.709 25.346 9.43111C26.8506 5.64311 29.7253 2.56585 33.3941 0.815571C34.0911 0.438682 34.8484 0.187561 35.6319 0.0735803C35.9132 -0.003972 36.2078 -0.0204698 36.496 0.0252716C36.7842 0.071013 37.0594 0.177868 37.3033 0.338775C37.5471 0.499681 37.7539 0.711007 37.91 0.958484C38.0661 1.20596 38.1678 1.48388 38.2085 1.77394C38.4834 2.69731 38.6826 3.64172 38.8039 4.59773C39.0143 6.04797 39.0555 7.51787 38.927 8.97772C38.6162 12.1695 37.4096 15.2072 35.4472 17.7377C34.2727 19.2341 32.8898 20.553 31.3411 21.6539C30.1811 22.5299 28.9801 23.3338 27.7893 24.1788L27.7174 24.251L27.9946 24.6322C28.4875 25.3838 28.7806 26.2496 28.8464 27.147C28.8994 27.7564 28.9885 28.3619 29.1133 28.9606C29.2359 29.5592 29.5324 30.1079 29.9654 30.5375C30.335 30.9291 30.6944 31.3311 31.0844 31.7125C31.7957 32.4258 32.3325 33.2948 32.653 34.2514C32.9736 35.208 33.0693 36.2261 32.9322 37.2259C32.832 38.3431 32.4309 39.4118 31.7721 40.3177C31.1467 41.3433 30.2703 42.1913 29.2264 42.7809C27.4536 43.7136 25.5444 44.357 23.5702 44.6874C20.3361 45.1828 17.0395 45.0888 13.8387 44.4093C12.1435 44.0543 10.5286 43.3867 9.07572 42.4408C8.30115 41.9518 7.63033 41.3141 7.10185 40.5643C6.57338 39.8144 6.19766 38.9671 5.99613 38.0711C5.69126 36.9719 5.68359 35.811 5.97407 34.7078C6.26456 33.6047 6.84257 32.5991 7.6487 31.7947C7.9156 31.5268 8.15171 31.2281 8.42887 30.9808C9.29221 30.1796 9.80498 29.0683 9.85564 27.889C9.85564 27.4974 9.92762 27.1056 9.98922 26.714C10.1033 25.775 10.4887 24.8901 11.0979 24.1685Z" fill="#383858"/>
</svg>
