<svg width="24" height="52" viewBox="0 0 24 52" fill="none" xmlns="http://www.w3.org/2000/svg">
<path d="M9.41912 12.0347C10.1088 12.448 10.7554 12.9274 11.3496 13.4658C12.2331 14.4164 12.7275 15.6562 12.7362 16.9452C12.7912 18.8214 12.747 20.6992 12.6041 22.5709C12.3731 25.7253 12.0921 28.8798 11.696 32.0179C11.0525 36.9933 10.3264 41.969 9.56737 46.9445C9.31394 48.2337 8.95542 49.5004 8.49498 50.7327C8.35368 51.0754 8.12036 51.3738 7.8198 51.5953C7.51923 51.8169 7.16279 51.9531 6.7893 51.9899C6.41581 52.0267 6.03912 51.9626 5.69999 51.8041C5.36085 51.6456 5.07264 51.3987 4.86528 51.0904C4.17248 49.9901 3.61836 48.8108 3.2152 47.5784C2.346 44.6744 1.79286 41.6875 1.56511 38.6682C1.18559 35.1561 0.690214 31.6603 0.376698 28.132C-0.0301864 24.6889 -0.107756 21.2155 0.145461 17.7581C0.203306 16.6576 0.552521 15.5911 1.15743 14.6642C1.76233 13.7373 2.60248 12.9822 3.59468 12.4738C3.32795 10.5564 3.69787 8.60565 4.65016 6.9131C6.01686 4.33616 8.22854 2.29079 10.925 1.10989C13.6214 -0.07101 16.6439 -0.317933 19.5009 0.40925C20.9323 0.573424 22.2505 1.2574 23.1975 2.32777C23.5631 2.74499 23.8152 3.24708 23.9299 3.78662C24.0445 4.32615 24.0183 4.88546 23.8533 5.41218C23.6883 5.9389 23.3897 6.41559 22.9864 6.79758C22.5831 7.17958 22.088 7.45428 21.5474 7.59588C20.7784 7.77369 19.9938 7.87746 19.2044 7.90511L16.9766 8.05119C16.6466 8.05119 16.399 8.19767 16.432 8.60416C16.564 9.87241 15.5245 10.5717 14.4354 10.7505C13.3464 10.9294 11.812 11.2546 10.5084 11.531C10.1264 11.6559 9.7606 11.8248 9.41912 12.0347Z" fill="#383858"/>
</svg>
