<svg width="382" height="382" viewBox="0 0 382 382" fill="none" xmlns="http://www.w3.org/2000/svg">
<g opacity="0.25">
<path d="M191.035 379.633C295.141 379.633 379.535 295.239 379.535 191.134C379.535 87.0283 295.141 2.63428 191.035 2.63428C86.9301 2.63428 2.53601 87.0283 2.53601 191.134C2.53601 295.239 86.9301 379.633 191.035 379.633Z" fill="white"/>
<path d="M191.035 379.633C295.141 379.633 379.535 295.239 379.535 191.134C379.535 87.0283 295.141 2.63428 191.035 2.63428C86.9301 2.63428 2.53601 87.0283 2.53601 191.134C2.53601 295.239 86.9301 379.633 191.035 379.633Z" fill="white"/>
</g>
<g opacity="0.5">
<path d="M191.035 346.85C277.036 346.85 346.752 277.134 346.752 191.133C346.752 105.133 277.036 35.4165 191.035 35.4165C105.035 35.4165 35.3185 105.133 35.3185 191.133C35.3185 277.134 105.035 346.85 191.035 346.85Z" fill="white"/>
<path d="M191.035 346.85C277.036 346.85 346.752 277.134 346.752 191.133C346.752 105.133 277.036 35.4165 191.035 35.4165C105.035 35.4165 35.3185 105.133 35.3185 191.133C35.3185 277.134 105.035 346.85 191.035 346.85Z" fill="white"/>
</g>
</svg>
