<svg width="39" height="39" viewBox="0 0 39 39" fill="none" xmlns="http://www.w3.org/2000/svg">
<circle cx="19.5" cy="19.5" r="19.5" fill="#15152C"/>
<circle cx="19.5" cy="19.5" r="14.5" fill="#15152C" stroke="#E4E5EC" stroke-width="2"/>
<path d="M12.4385 22.1846V15.417H10.709V13.6016H14.4795V14.9121C15.7113 13.931 16.918 13.4404 18.0996 13.4404C19.2884 13.4404 20.1084 13.9811 20.5596 15.0625C21.9131 13.9811 23.1735 13.4404 24.3408 13.4404C25.014 13.4404 25.5654 13.5908 25.9951 13.8916C26.432 14.1852 26.7256 14.5612 26.876 15.0195C27.0264 15.4707 27.1016 16.1403 27.1016 17.0283V22.1846H28.917V24H25.0605V17.3936C25.0605 16.792 25.0319 16.3695 24.9746 16.126C24.9245 15.8753 24.7884 15.6712 24.5664 15.5137C24.3516 15.349 24.0902 15.2666 23.7822 15.2666C22.9085 15.2666 21.9167 15.7142 20.8066 16.6094V22.1846H22.5898V24H18.7656V17.2002C18.7656 16.5199 18.6654 16.0293 18.4648 15.7285C18.2715 15.4206 17.9385 15.2666 17.4658 15.2666C16.6924 15.2666 15.6969 15.7142 14.4795 16.6094V22.1846H16.3057V24H10.5801V22.1846H12.4385Z" fill="#E4E5EC"/>
</svg>
