<svg width="113" height="56" viewBox="0 0 113 56" fill="none" xmlns="http://www.w3.org/2000/svg">
<path d="M0 28C0 12.536 12.536 0 28 0H85C100.464 0 113 12.536 113 28V28C113 43.464 100.464 56 85 56H28C12.536 56 0 43.464 0 28V28Z" fill="url(#paint0_linear_759_25)" fill-opacity="0.97"/>
<path d="M35.0234 26.5161V30.0703H20.8916V26.5161H35.0234ZM29.8975 20.9229V35.9326H26.0317V20.9229H29.8975Z" fill="white"/>
<path d="M48 27.8068C49.791 27.0003 51.7372 26.5967 53.7012 26.6244C55.1775 26.6565 55.164 26.67 55.6455 28.0467C57.5323 33.4371 60.7909 37.7193 65.8146 40.5842C66.389 40.9119 67.1119 40.9879 67.5258 41.5842H63.8298C62.9328 41.3748 62.0139 41.2312 61.1422 40.944C54.6826 38.8156 49.6555 35.2006 48.0068 28.1498L48 27.8068Z" fill="white"/>
<path d="M73.5747 41.5823C73.6457 41.3002 73.8821 41.209 74.1153 41.1026C79.8755 38.4573 83.3672 33.8474 85.4568 28.0347C85.9467 26.6715 85.9416 26.6529 87.4112 26.6039C89.0675 26.5561 90.7172 26.8321 92.2678 27.4164C93.0144 27.6884 93.0786 28.1361 92.9435 28.7813C92.4215 31.1463 91.2542 33.1598 89.6461 34.9217C86.2676 38.6144 82.0631 40.7799 77.1002 41.4844C76.9917 41.508 76.8855 41.5408 76.7826 41.5823H73.5747Z" fill="white"/>
<path d="M64.7625 26.5063C64.8301 22.4082 65.776 18.5939 68.3859 15.3134C68.8543 14.7558 69.3734 14.2429 69.9366 13.7813C70.3843 13.3961 70.7323 13.4265 71.1816 13.7914C73.0212 15.2864 74.2611 17.2053 75.0398 19.3963C77.1159 25.2376 76.8405 30.9253 73.6884 36.3613C73.0453 37.4489 72.2129 38.4128 71.2306 39.2076C70.7238 39.6333 70.3438 39.6029 69.8454 39.1924C68.1089 37.7633 66.9552 35.9339 66.1291 33.8814C65.1926 31.537 64.7282 29.0307 64.7625 26.5063V26.5063Z" fill="white"/>
<path d="M74.2809 38.6144C74.2049 38.3086 74.4499 38.1465 74.5732 37.9539C76.5901 34.9133 77.5935 31.5534 77.7591 27.9317C77.8705 25.4637 77.7743 23.011 77.0952 20.614C76.9769 20.195 77.0462 19.8825 77.433 19.6004C79.1425 18.3825 80.972 17.4652 83.065 17.0936C83.7187 16.977 84.0413 17.1612 84.2677 17.7693C85.3251 20.6207 85.1815 23.4975 84.3471 26.3371C82.8369 31.4689 79.9669 35.6093 75.2016 38.2816C74.9803 38.4019 74.7518 38.5086 74.5174 38.6009C74.4399 38.6187 74.36 38.6233 74.2809 38.6144V38.6144Z" fill="white"/>
<path d="M66.7013 38.7223C65.252 38.1564 64.0779 37.2966 62.9935 36.3286C58.7873 32.5718 56.4358 27.8825 56.0997 22.2489C56.0237 20.7345 56.2749 19.2216 56.8362 17.813C57.0423 17.2775 57.343 17.0815 57.9122 17.1626C60.1082 17.4785 62.012 18.4397 63.7654 19.7505C64.2114 20.0884 64.0273 20.4854 63.9344 20.8908C63.0002 25.0041 63.0391 29.0954 64.2249 33.1563C64.7165 34.8225 65.441 36.4108 66.377 37.8743C66.5189 38.099 66.7655 38.2848 66.7013 38.7223Z" fill="white"/>
<defs>
<linearGradient id="paint0_linear_759_25" x1="-6" y1="0" x2="141" y2="0" gradientUnits="userSpaceOnUse">
<stop stop-color="#5454D7"/>
<stop offset="1" stop-color="#8ED6FF"/>
</linearGradient>
</defs>
</svg>
