<svg width="424" height="424" viewBox="0 0 424 424" fill="none" xmlns="http://www.w3.org/2000/svg">
<path opacity="0.5" d="M397.637 212C397.637 109.475 314.525 26.3628 212 26.3628C109.475 26.3628 26.3628 109.475 26.3628 212C26.3628 314.525 109.475 397.637 212 397.637C314.525 397.637 397.637 314.525 397.637 212Z" fill="white"/>
<path opacity="0.25" d="M424 212C424 94.9156 329.084 0 212 0C94.9156 0 0 94.9156 0 212C0 329.084 94.9156 424 212 424C329.084 424 424 329.084 424 212Z" fill="white"/>
<path d="M371.275 212C371.275 124.035 299.965 52.7256 212 52.7256C124.035 52.7256 52.7256 124.035 52.7256 212C52.7256 299.965 124.035 371.275 212 371.275C299.965 371.275 371.275 299.965 371.275 212Z" fill="white"/>
<path d="M75.8643 252.996C76.6994 246.489 77.6428 238.822 78.7164 231.132C79.6599 224.333 71.8516 214.984 64.9542 214.865C57.5471 214.778 50.1291 214.648 42.7328 214.865C38.9913 214.963 36.8331 213.672 35.1413 210.245C28.4716 196.58 28.385 196.645 38.254 185.226C41.3231 181.668 44.1752 177.927 47.3202 174.435C49.1747 172.363 49.1747 170.281 49.229 167.592C49.3699 159.057 45.1837 153.992 38.026 150.24C33.0915 147.648 28.6234 144.156 23.9275 141.173C21.4982 139.644 21.1404 137.725 21.032 134.861C20.5222 122.303 26.0966 115.514 38.6551 114.256C41.4748 113.963 44.1426 112.369 46.9731 111.903C52.5474 110.97 55.519 107.749 57.8181 102.674C59.9871 97.9668 60.28 93.9976 57.9049 89.4101C54.7707 83.3044 52.2438 76.9058 49.4892 70.6157C48.9795 69.4661 48.0252 68.1647 48.2204 67.1128C49.0989 62.341 53.708 60.183 56.1048 56.4306C58.675 52.3963 61.7225 50.455 66.9498 52.5914C72.1771 54.7279 78.3371 55.14 83.5318 57.5042C91.8174 61.2566 97.2722 56.5822 103.129 52.396C104.723 51.2573 104.951 49.4463 105.211 47.6026C106.295 40.0979 107.586 32.6257 108.54 25.0993C109.028 21.1734 110.959 19.2429 114.722 18.0392C128.734 13.5819 128.679 13.4625 138.19 24.4593C140.674 27.3332 143.613 29.882 145.652 33.0487C148.602 37.506 152.408 38.6121 157.581 38.6555C163.004 38.6555 166.854 37.1806 170.194 32.9944C174.478 27.637 179.228 22.659 183.631 17.3992C185.8 14.8181 187.969 14.753 191.222 15.2302C202.263 16.7919 209.052 21.6723 208.574 33.8621C208.455 36.6926 209.659 39.5665 209.735 42.4187C209.843 49.2402 212.804 53.7952 218.964 56.8969C222.424 58.6429 225.471 59.4889 229.212 58.2959C236.099 56.1269 243.127 54.3808 250.024 52.2443C253.278 51.1598 255.316 52.0708 258.06 54.4133C267.409 62.3627 268.959 70.8109 261.747 80.8859C260.403 82.7512 260.121 85.365 258.787 87.2411C253.69 94.4422 256.694 100.863 260.262 107.359C261.346 109.322 263.016 110.016 264.979 110.612C272.571 112.911 280.162 115.427 287.754 117.575C290.779 118.42 292.504 119.928 292.808 122.997C292.867 123.732 293.002 124.459 293.209 125.166C296.462 135.209 293.719 142.453 283.644 146.65C281.019 147.735 278.926 150.142 276.291 151.183C267.886 154.513 266.801 161.595 266.324 169.186C266.161 171.843 267.615 173.632 269.122 175.422C274.143 181.354 279.132 187.351 284.305 193.132C286.073 195.149 286.778 197.047 285.39 199.454C285.298 199.609 285.222 199.773 285.162 199.942C279.186 214.865 279.186 214.865 263.288 214.898C259.492 214.898 255.696 215.18 251.9 214.898C247.866 214.572 245.393 216.503 242.552 219.051C236.912 224.051 236.045 229.658 237.628 236.566C238.919 242.357 239.288 248.354 240.144 254.254C240.406 255.496 240.277 256.789 239.774 257.954C239.271 259.119 238.419 260.1 237.335 260.761C224.809 269.936 224.842 270.001 211.676 262.019C209.43 260.853 207.302 259.472 205.321 257.898C198.738 251.814 191.732 252.747 184.26 255.87C183.271 256.292 182.377 256.909 181.632 257.684C180.886 258.459 180.305 259.377 179.922 260.381C176.669 267.235 173.35 274.057 170.27 280.987C168.86 284.164 167.016 285.585 163.318 285.661C147.615 285.987 147.615 286.117 141.075 271.834C139.985 269.755 139.032 267.606 138.223 265.403C136.13 258.755 131.998 255.024 124.905 253.788C121.066 253.115 118.04 253.061 114.743 255.295C108.909 259.243 102.814 262.887 96.8709 266.574C95.8588 267.311 94.7676 267.933 93.6174 268.429C89.1168 269.763 75.5607 258.961 75.8643 252.996ZM208.347 148.949C208.466 120.286 186.277 97.8041 157.766 97.7173C130.046 97.6414 107.315 120.362 106.935 148.537C106.556 175.715 129.807 199.042 157.321 199.096C185.735 199.183 208.217 177.059 208.347 148.949Z" fill="#626262"/>
<path d="M356.208 350.633C356.208 351.349 356.208 352.076 356.208 352.802C356.392 368.94 355.535 369.948 339.626 374.124C336.828 374.861 335.212 373.82 333.563 371.955C328.488 366.077 323.456 360.166 318.207 354.44C313.619 349.44 303.208 348.746 297.927 353.019C292.168 357.672 286.464 362.4 280.933 367.324C278.048 369.894 275.629 369.97 272.257 368.018C258.906 360.285 258.83 360.426 261.238 345.103C261.715 342.066 262.246 339.044 262.832 336.036C265.001 324.931 260.218 317.773 249.005 315.43C242.498 314.042 235.991 312.611 229.397 311.342C226.35 310.756 224.571 309.379 224.354 306.061C224.313 302.984 223.876 299.926 223.053 296.961C220.97 290.758 223.573 287.678 229.083 285.357C233.887 283.34 238.138 279.935 243.007 278.156C250.599 275.456 252.28 269.307 253.852 262.713C254.33 260.696 253.451 259.21 252.649 257.605C249.048 250.523 245.545 243.387 241.804 236.36C240.372 233.638 240.307 231.685 242.574 229.158C253.885 216.567 253.798 216.492 269.502 223.27C271.671 224.202 274.111 224.723 275.933 226.079C282.538 230.97 288.557 227.695 294.706 225.189C296.766 224.354 297.601 222.586 298.415 220.764C301.668 213.683 304.922 206.666 307.958 199.508C309.357 196.255 311.212 194.379 315.018 195.539C315.548 195.661 316.09 195.723 316.634 195.724C334.604 196.569 330.364 194.921 335.342 211.568C336.379 214.649 337.201 217.798 337.804 220.992C338.595 226.122 341.502 229.126 345.894 231.631C347.694 232.791 349.73 233.535 351.854 233.807C353.978 234.079 356.136 233.873 358.171 233.204C364.547 231.252 371.109 229.896 377.594 228.291C378.678 228.031 379.763 227.38 380.739 227.629C387.766 229.473 388.471 236.956 392.668 241.348C394.837 243.593 393.872 245.914 392.202 248.159C387.669 254.232 383.212 260.381 378.765 266.52C374.763 272.051 376.141 282.711 381.531 286.93C387.354 291.496 393.33 295.888 399.219 300.378C400.357 301.245 402.245 302.178 402.342 303.208C402.939 309.878 399.522 315.658 397.603 321.764C396.518 325.072 393.156 324.204 390.554 324.367C384.611 324.714 378.624 325.614 372.725 325.094C364.905 324.41 361.023 329.431 356.652 334.214C355.568 335.396 355.568 336.763 355.633 338.259C355.741 342.402 355.633 346.556 355.633 350.709L356.208 350.633ZM288.795 286.529C288.73 289.825 289.325 293.101 290.546 296.163C291.766 299.226 293.587 302.013 295.902 304.361C298.216 306.708 300.977 308.569 304.022 309.834C307.066 311.098 310.333 311.74 313.63 311.722C320.204 311.693 326.501 309.07 331.152 304.424C335.803 299.777 338.431 293.482 338.465 286.908C338.527 283.613 337.935 280.339 336.724 277.275C335.513 274.21 333.707 271.415 331.41 269.053C329.113 266.69 326.371 264.806 323.341 263.51C320.312 262.213 317.055 261.529 313.76 261.498C310.467 261.465 307.2 262.09 304.152 263.337C301.104 264.583 298.335 266.427 296.009 268.759C293.684 271.091 291.847 273.864 290.608 276.915C289.369 279.967 288.753 283.235 288.795 286.529Z" fill="#626262"/>
</svg>
