<svg width="408" height="411" viewBox="0 0 408 411" fill="none" xmlns="http://www.w3.org/2000/svg">
<path d="M155.53 399.357C152.58 389.973 149.05 378.94 145.683 367.796C142.697 357.945 126.195 350.12 116.728 354.289C106.588 358.822 96.4058 363.304 86.4711 368.244C81.4379 370.726 77.6888 370.325 73.2331 366.721C55.5702 352.303 55.493 352.446 61.7592 330.699C63.7043 323.928 65.2381 317.043 67.3274 310.313C68.5517 306.328 67.2442 303.493 65.629 299.796C60.461 288.087 51.5804 283.819 39.4779 283.205C31.1313 282.775 22.8543 280.826 14.5874 279.714C10.3194 279.157 8.62667 276.768 6.681 272.938C-1.89973 256.158 1.42691 243.414 17.7367 233.814C21.3922 231.644 24.0236 227.799 27.5848 225.386C34.5892 220.615 36.6125 214.364 36.5557 206.009C36.5532 198.238 34.4594 192.649 28.3446 187.895C20.2426 181.549 12.7836 174.424 5.08274 167.589C3.66678 166.344 1.55017 165.171 1.15534 163.616C-0.645227 156.567 4.27544 150.734 5.18241 144.12C6.14857 137.012 9.07889 132.455 17.5381 132.082C25.9974 131.708 34.6437 128.401 43.2017 128.358C56.8399 128.264 61.3318 118.473 66.6769 109.096C68.1325 106.544 67.3056 103.935 66.5022 101.261C63.2659 90.3614 60.3303 79.3768 56.9033 68.5294C55.1023 62.8773 56.5188 59.0364 60.8868 55.034C77.1663 40.1656 77.0173 40.0372 96.8737 49.0377C102.06 51.3913 107.662 53.0161 112.427 56.0476C119.243 60.2642 125.121 59.3798 132.192 56.1902C139.575 52.7849 143.891 48.3588 145.81 40.5612C148.279 30.5762 151.62 20.8151 154.312 10.8882C155.645 6.01158 158.557 4.56086 163.287 3.16741C179.3 -1.63939 191.609 0.742442 198.614 17.6399C200.229 21.5689 203.673 24.7259 205.568 28.5619C210 37.782 216.891 42.1249 227.227 42.4797C233.034 42.6846 237.714 41.9227 242.06 37.9487C250.074 30.6706 258.547 23.8797 266.597 16.6391C270.346 13.1192 273.694 13.0793 278.901 14.5458C296.622 19.4991 304.039 30.0283 300.546 48.2757C299.887 51.66 301.144 55.3961 300.506 58.7884C298.088 71.7945 306.21 78.6498 315.148 85.2544C317.858 87.2461 320.567 87.1424 323.615 86.7219C335.395 85.085 347.312 83.7433 358.997 81.8997C363.648 81.1513 366.943 82.1209 369.284 86.1092C369.827 87.0722 370.466 87.9774 371.192 88.8106C381.929 100.441 382.743 112.029 371.66 124.07C368.768 127.195 367.43 131.788 364.495 134.86C355.142 144.672 358.112 154.996 362.23 165.632C363.677 169.352 366.78 170.876 369.956 172.366C380.518 177.29 391.077 182.323 401.751 186.945C405.425 188.581 407.576 190.723 407.198 194.873C407.171 195.141 407.17 195.412 407.195 195.68C408.43 219.752 408.43 219.752 386.802 229.781C381.634 232.164 376.643 234.932 371.297 236.932C365.6 239.022 363.445 243.204 361.177 248.458C356.638 258.807 358.977 266.987 365.472 275.399C370.866 282.474 375.134 290.408 380.006 297.903C381.142 299.43 381.778 301.271 381.825 303.174C381.872 305.076 381.327 306.946 380.267 308.527C368.974 328.886 369.059 328.954 346.119 326.354C342.329 326.176 338.564 325.633 334.878 324.733C322.094 320.583 313.14 326.253 304.928 335.198C303.846 336.394 303.016 337.796 302.488 339.319C301.96 340.843 301.744 342.457 301.854 344.065C301.728 355.441 301.494 366.813 301.652 378.184C301.728 383.396 300.109 386.488 295.122 388.914C273.944 399.219 274.026 399.396 256.152 384.055C253.362 381.908 250.715 379.582 248.23 377.089C241.205 369.352 233.236 366.867 222.802 369.638C217.152 371.133 212.998 372.959 209.912 378.072C204.446 387.111 198.436 395.9 192.659 404.653C191.744 406.292 190.649 407.825 189.394 409.221C184.104 413.864 158.862 407.67 155.53 399.357ZM270.578 174.487C252.74 135.384 208.41 118.707 169.533 136.494C131.742 153.798 115.059 199.01 132.236 237.612C148.787 274.856 195.096 292.017 232.593 274.812C271.337 257.086 288.054 212.844 270.578 174.487Z" fill="#626262"/>
</svg>
