<svg width="122" height="234" viewBox="0 0 122 234" fill="none" xmlns="http://www.w3.org/2000/svg">
<path d="M34.2655 138.587L34.261 138.587H34.2216H34.1821H34.1427H34.1032H34.0638H34.0243H33.9849H33.9454H33.906H33.8665H33.8271H33.7876H33.7482H33.7087H33.6693H33.6298H33.5904H33.5509H33.5115H33.472H33.4326H33.3931H33.3537H33.3142H33.2748H33.2353H33.1959H33.1564H33.117H33.0775H33.0381H32.9986H32.9592H32.9197H32.8803H32.8408H32.8014H32.7619H32.7225H32.683H32.6436H32.6041H32.5647H32.5252H32.4858H32.4463H32.4069H32.3674H32.328H32.2885H32.2491H32.2096H32.1702H32.1307H32.0912H32.0518H32.0123H31.9729H31.9334H31.894H31.8545H31.8151H31.7756H31.7362H31.6967H31.6573H31.6178H31.5784H31.5389H31.4995H31.46H31.4206H31.3811H31.3417H31.3022H31.2628H31.2233H31.1839H31.1444H31.105H31.0655H31.0261H30.9866H30.9472H30.9077H30.8683H30.8288H30.7893H30.7499H30.7104H30.671H30.6315H30.5921H30.5526H30.5132H30.4737H30.4343H30.3948H30.3554H30.3159H30.2765H30.237H30.1976H30.1581H30.1187H30.0792H30.0398H30.0003H29.9608H29.9214H29.8819H29.8425H29.803H29.7636H29.7241H29.6847H29.6452H29.6058H29.5663H29.5269H29.4874H29.448H29.4085H29.3691H29.3296H29.2901H29.2507H29.2112H29.1718H29.1323H29.0929H29.0534H29.014H28.9745H28.9351H28.8956H28.8562H28.8167H28.7772H28.7378H28.6983H28.6589H28.6194H28.58H28.5405H28.5011H28.4616H28.4222H28.3827H28.3432H28.3038H28.2643H28.2249H28.1854H28.146H28.1065H28.0671H28.0276H27.9882H27.9487H27.9092H27.8698H27.8303H27.7909H27.7514H27.712H27.6725H27.6331H27.5936H27.5541H27.5147H27.4752H27.4358H27.3963H27.3569H27.3174H27.2779H27.2385H27.199H27.1596H27.1201H27.0807H27.0412H27.0018H26.9623H26.9228H26.8834H26.8439H26.8045H26.765H26.7256H26.6861H26.6466H26.6072H26.5677H26.5283H26.4888H26.4494H26.4099H26.3704H26.331H26.2915H26.2521H26.2126H26.1731H26.1337H26.0942H26.0548H26.0153H25.9759H25.9364H25.8969H25.8575H25.818H25.7786H25.7391H25.6996H25.6602H25.6207H25.5813H25.5418H25.5023H25.4629H25.4234H25.384H25.3445H25.305H25.2656H25.2261H25.1867H25.1472H25.1077H25.0683H25.0288H24.9894H24.9499H24.9104H24.871H24.8315H24.7921H24.7526H24.7131H24.6737H24.6342H24.5948H24.5553H24.5158H24.4764H24.4369H24.3974H24.358H24.3185H24.2791H24.2396H24.2001H24.1607H24.1212H24.0817H24.0423H24.0028H23.9634H23.9239H23.8844H23.845H23.8055H23.766H23.7266H23.6871H23.6477H23.6082H23.5687H23.5293H23.4898H23.4503H23.4109H23.3714H23.3319H23.2925H23.253H23.2135H23.1741H23.1346H23.0952H23.0557H23.0162H22.9768H22.9373H22.8978H22.8584H22.8189H22.7794H22.74H22.7005H22.661H22.6216H22.5821H22.5426H22.5032H22.4637H22.4242H22.3848H22.3453H22.3058H22.2664H22.2269H22.1874H22.148H22.1085H22.069H22.0296H21.9901H21.9506H21.9112H21.8717H21.8322H21.7927H21.7533H21.7138H21.6743H21.6349H21.5954H21.5559H21.5165H21.477H21.4375H21.3981H21.3586H21.3191H21.2796H21.2402H21.2007H21.1612H21.1218H21.0823H21.0428H21.0034H20.9639H20.9244H20.8849H20.8455H20.806H20.7665H20.7271H20.6876H20.6481H20.6086H20.5692H20.5297H20.4902H20.4507H20.4113H20.3718H20.3323H20.2929H20.2534H20.2139H20.1744H20.135H20.0955H20.056H20.0165H19.9771H19.9376H19.8981H19.8586H19.8192H19.7797H19.7402H19.7007H19.6613H19.6218H19.5823H19.5428H19.5034H19.4639H19.4244H19.3849H19.3455H19.306H19.2665H19.227H19.1875H19.1481H19.1086H19.0691H19.0296H18.9902H18.9507H18.9112H18.8717H18.8323H18.7928H18.7533H18.7138H18.6743H18.6349H18.5954H18.5559H18.5164H18.4769H18.4375H18.398H18.3585H18.319H18.2795H18.2401H18.2006H18.1611H18.1216H18.0821H18.0427H18.0032H17.9637H17.9242H17.8847H17.8453H17.8058H17.7663H17.7268H17.6873H17.6478H17.6084H17.5689H17.5294H17.4899H17.4504H17.4109H17.3715H17.332H17.2925H17.253H17.2135H17.174H17.1346H17.0951H17.0556H17.0161H16.9766H16.9371H16.8976H16.8582H16.8187H16.7792H16.7397H16.7002H16.6607H16.6212H16.5818H16.5423H16.5028H16.4633H16.4238H16.3843H16.3448H16.3053H16.2659H16.2264H16.1869H16.1474H16.1079H16.0684H16.0289H15.9894H15.9499H15.9104H15.871H15.8315H15.792H15.7525H15.713H15.6735H15.634H15.5945H15.555H15.5155H15.4761H15.4366H15.3971H15.3576H15.3181H15.2786H15.2391H15.1996H15.1601H15.1206H15.0811H15.0416H15.0021H14.9626H14.9232H14.8837H14.8442H14.8047H14.7652H14.7257H14.6862H14.6467H14.6072H14.5677H14.5282H14.4887H14.4492H14.4097H14.3702H14.3307H14.2912H14.2517H14.2122H14.1727H14.1332H14.0937H14.0542C10.3816 138.587 7.02816 137.313 5.2199 134.424C3.40855 131.53 3.74546 127.972 5.36159 124.72C15.3106 104.674 25.2394 84.6209 35.1479 64.5615L35.1495 64.5584C38.7294 57.3321 42.3175 50.1217 45.903 42.9166C51.5358 31.5972 57.1622 20.2908 62.7404 8.95586C64.3983 5.58346 67.2754 3.80705 70.2926 3.53647C73.1572 3.27957 76.0722 4.39523 77.9374 6.55031C78.7578 7.45979 79.3702 8.53774 79.7265 9.71154C80.0856 10.8949 80.1742 12.1424 79.9853 13.3644C79.6797 15.466 79.375 17.5693 79.0702 19.6738C78.2484 25.3484 77.4253 31.0311 76.579 36.7091L76.5789 36.7097C74.0623 53.5712 71.5307 70.4275 68.9844 87.2785C68.8866 87.9304 68.7882 88.5775 68.6903 89.2212C68.3732 91.3066 68.0615 93.3563 67.7915 95.4147C81.2348 95.4301 94.6795 95.43 108.126 95.4144H108.129C108.25 95.4144 108.389 95.413 108.54 95.4116C109.058 95.4067 109.725 95.4003 110.343 95.4403L110.343 95.4403C113.543 95.647 116.27 97.2284 117.777 99.7666C119.287 102.311 119.364 105.468 117.969 108.386C117.969 108.387 117.969 108.387 117.968 108.388L115.262 107.094C113.298 111.214 111.259 115.313 109.227 119.395C108.826 120.202 108.424 121.009 108.024 121.815L34.2655 138.587ZM34.2655 138.587C41.2251 138.577 48.1861 138.583 55.1483 138.606C54.9796 139.922 54.7807 141.231 54.5758 142.58C54.5104 143.009 54.4445 143.443 54.3787 143.883C51.9995 159.702 49.6297 175.523 47.2694 191.344L47.2688 191.348C45.8341 201.048 44.4022 210.76 42.9728 220.484C42.7657 221.736 42.846 223.017 43.2071 224.234C43.5682 225.45 44.1996 226.568 45.0507 227.508C46.9155 229.633 49.8259 230.733 52.6891 230.458C55.704 230.169 58.5683 228.376 60.2315 224.993L60.2321 224.992C66.1637 212.914 72.1592 200.865 78.1617 188.803C81.3502 182.396 84.5406 175.984 87.7246 169.562L85.0368 168.229L87.7246 169.562C95.3897 154.101 103.052 138.629 110.712 123.147L34.2655 138.587ZM67.6758 96.6933C67.6758 96.6932 67.6757 96.6931 67.6757 96.6929L67.6758 96.6933Z" fill="url(#paint0_linear_1303_13)" stroke="#C7C7CC" stroke-width="6"/>
<path d="M63.9097 7.5L35.9097 65.5H72.4097L78.4097 7.5L72.4097 4L63.9097 7.5Z" fill="#C7C7CC"/>
<path d="M23.4097 92H45.4097M9.40973 120.5H45.4097M55.9097 140H73.4097M52.9097 164H73.4097" stroke="#C7C7CC" stroke-width="8" stroke-linecap="round"/>
<defs>
<linearGradient id="paint0_linear_1303_13" x1="7" y1="117.095" x2="115.965" y2="117.095" gradientUnits="userSpaceOnUse">
<stop stop-color="#70FFE2"/>
<stop offset="1" stop-color="#68B589"/>
</linearGradient>
</defs>
</svg>
