<svg width="51" height="58" viewBox="0 0 51 58" fill="none" xmlns="http://www.w3.org/2000/svg">
<path d="M14.5127 31.1505C14.1637 30.938 13.8281 30.7654 13.5059 30.5529C10.8848 28.8502 8.43858 26.8969 6.20309 24.7214C3.65464 22.1158 1.80832 18.9186 0.833559 15.4232C0.0925296 12.7256 -0.157209 9.91896 0.0955099 7.13461C0.175122 5.59497 0.417811 4.06797 0.820122 2.5786C0.889551 2.33262 0.979609 2.09266 1.08886 1.86127C1.29503 1.31714 1.67562 0.855101 2.17267 0.545606C2.66971 0.23611 3.25553 0.0961824 3.84049 0.147697C4.95388 0.249152 6.03571 0.570072 7.02209 1.09107C11.2174 3.0431 14.6435 6.31185 16.7678 10.3892C17.454 11.7756 18.0373 13.2095 18.513 14.6796C19.0902 16.3267 19.6002 18.0004 20.07 19.6741C20.7114 21.9397 21.187 24.248 21.493 26.5812C21.4843 26.6873 21.4843 26.7939 21.493 26.9C22.7099 26.3553 24.0302 26.0734 25.3658 26.0734C26.7014 26.0734 28.0217 26.3553 29.2386 26.9C29.3057 26.4484 29.3458 26.0366 29.413 25.5717C29.8489 22.7375 30.5179 19.9432 31.4131 17.2166C31.9769 15.5296 32.4602 13.8028 33.1448 12.1557C35.1123 7.27334 38.8715 3.3071 43.6692 1.05118C44.5806 0.565412 45.571 0.241745 46.5955 0.0948368C46.9635 -0.00511947 47.3487 -0.0263833 47.7256 0.0325723C48.1024 0.0915279 48.4623 0.229252 48.7812 0.436643C49.1 0.644033 49.3705 0.916409 49.5746 1.23538C49.7787 1.55435 49.9118 1.91255 49.9649 2.28642C50.3245 3.47653 50.585 4.69378 50.7436 5.92597C51.0187 7.79516 51.0726 9.6897 50.9045 11.5713C50.4981 15.6851 48.9202 19.6004 46.354 22.8619C44.8181 24.7906 43.0097 26.4906 40.9845 27.9095C39.4676 29.0386 37.897 30.0746 36.3399 31.1638L36.2458 31.2569L36.6083 31.7482C37.2529 32.7169 37.6362 33.8328 37.7222 34.9895C37.7915 35.775 37.9081 36.5553 38.0713 37.327C38.2315 38.0985 38.6194 38.8058 39.1856 39.3594C39.6688 39.8641 40.1388 40.3824 40.6489 40.8738C41.579 41.7932 42.2809 42.9133 42.7001 44.1463C43.1194 45.3793 43.2445 46.6914 43.0652 47.9801C42.9342 49.42 42.4097 50.7974 41.5482 51.965C40.7303 53.2869 39.5843 54.3799 38.2191 55.1399C35.9009 56.342 33.4042 57.1713 30.8225 57.597C26.5933 58.2357 22.2824 58.1145 18.0968 57.2387C15.8799 56.7811 13.7682 55.9207 11.8682 54.7014C10.8554 54.0712 9.97812 53.2493 9.28704 52.2828C8.59596 51.3163 8.10463 50.2243 7.84109 49.0694C7.44241 47.6526 7.43238 46.1564 7.81225 44.7346C8.19212 43.3127 8.94797 42.0166 10.0021 40.9799C10.3512 40.6345 10.6599 40.2496 11.0224 39.9308C12.1513 38.8981 12.8219 37.4658 12.8881 35.9459C12.8881 35.4411 12.9823 34.9362 13.0628 34.4314C13.2119 33.2212 13.716 32.0806 14.5127 31.1505V31.1505Z" fill="white"/>
</svg>
