<svg width="160" height="106" viewBox="0 0 160 106" fill="none" xmlns="http://www.w3.org/2000/svg">
<path fill-rule="evenodd" clip-rule="evenodd" d="M159.57 27.5596C159.852 28.8972 160 30.2842 160 31.7058V85.9998C160 97.0455 151.046 106 140 106H42L159.57 27.5596Z" fill="#FFB803"/>
<path d="M101.833 91.4253L103.086 93.2661L95.8928 98.1624L94.8326 96.6048L95.7749 90.8661C95.8395 90.3318 95.8715 89.8714 95.8709 89.485C95.8671 89.0939 95.8315 88.7624 95.7639 88.4907C95.7011 88.2158 95.6102 87.991 95.4914 87.8163C95.289 87.519 95.0754 87.3017 94.8508 87.1645C94.6277 87.0194 94.3959 86.9527 94.1553 86.9645C93.9194 86.9732 93.6787 87.061 93.4333 87.2281C93.1879 87.3951 93.0213 87.6121 92.9336 87.879C92.8459 88.1459 92.8337 88.4374 92.8969 88.7535C92.9648 89.0664 93.1032 89.3763 93.3121 89.6831L90.919 91.312C90.4885 90.6795 90.2484 89.9969 90.1985 89.2641C90.1534 88.5282 90.301 87.8165 90.6412 87.1291C90.9781 86.4369 91.5101 85.8435 92.2369 85.3487C92.9968 84.8315 93.7144 84.5157 94.3895 84.4015C95.0646 84.2873 95.6846 84.3661 96.2494 84.6378C96.8157 84.9015 97.3125 85.3473 97.7398 85.975C97.984 86.3338 98.1619 86.7169 98.2735 87.1244C98.3851 87.5319 98.4455 87.9708 98.4548 88.441C98.4609 88.9065 98.4262 89.4136 98.3507 89.9623C98.28 90.5078 98.1812 91.1034 98.0544 91.7491L97.7691 94.1915L101.833 91.4253ZM107.312 81.4691L108.594 83.3524C109.099 84.0934 109.45 84.7971 109.648 85.4635C109.851 86.1267 109.914 86.7469 109.837 87.3241C109.765 87.898 109.569 88.4217 109.249 88.8952C108.928 89.3686 108.504 89.7852 107.975 90.1451C107.551 90.4342 107.117 90.6498 106.675 90.7918C106.23 90.9292 105.782 90.9857 105.33 90.9616C104.88 90.9295 104.431 90.8135 103.984 90.6135C103.538 90.4135 103.098 90.1184 102.667 89.7283C102.233 89.3334 101.813 88.8386 101.408 88.2439L100.126 86.3606C99.6185 85.6149 99.2649 84.9128 99.0653 84.2543C98.8673 83.5879 98.8067 82.9661 98.8834 82.3889C98.9602 81.8118 99.1587 81.2865 99.4787 80.813C99.7988 80.3396 100.223 79.923 100.752 79.5631C101.177 79.274 101.609 79.0624 102.05 78.9282C102.492 78.7862 102.94 78.7296 103.395 78.7585C103.847 78.7826 104.294 78.8963 104.736 79.0995C105.183 79.2995 105.623 79.5969 106.058 79.9918C106.489 80.382 106.907 80.8744 107.312 81.4691ZM106.406 85.2667L104.719 82.7888C104.494 82.4584 104.279 82.1833 104.074 81.9636C103.874 81.7406 103.681 81.5683 103.495 81.4466C103.313 81.3216 103.137 81.241 102.967 81.2046C102.794 81.1635 102.628 81.1627 102.468 81.2023C102.31 81.2339 102.156 81.3011 102.005 81.4039C101.816 81.5324 101.673 81.6882 101.577 81.8713C101.482 82.0464 101.441 82.2542 101.452 82.4948C101.464 82.7354 101.538 83.0166 101.674 83.3384C101.815 83.6569 102.025 84.0215 102.305 84.4321L103.992 86.9101C104.22 87.2452 104.435 87.5266 104.639 87.7543C104.843 87.974 105.038 88.1487 105.223 88.2784C105.41 88.4001 105.59 88.4815 105.763 88.5226C105.932 88.5589 106.097 88.5574 106.257 88.5178C106.416 88.4783 106.571 88.4071 106.723 88.3043C106.907 88.179 107.046 88.0288 107.141 87.8537C107.236 87.6785 107.277 87.4707 107.266 87.2301C107.255 86.9816 107.18 86.698 107.039 86.3795C106.9 86.053 106.689 85.6821 106.406 85.2667ZM107.425 78.9263L107.054 78.3811C106.788 77.9894 106.63 77.5752 106.582 77.1386C106.533 76.702 106.613 76.2712 106.821 75.8464C107.029 75.4216 107.386 75.0373 107.891 74.6935C108.41 74.3401 108.905 74.1445 109.377 74.1067C109.848 74.0689 110.276 74.1542 110.66 74.3627C111.048 74.568 111.376 74.8666 111.642 75.2583L112.013 75.8035C112.274 76.1858 112.428 76.5952 112.476 77.0319C112.53 77.4653 112.452 77.8944 112.244 78.3192C112.041 78.7409 111.684 79.1252 111.174 79.4721C110.66 79.8223 110.167 80.0163 109.695 80.0541C109.224 80.0919 108.792 80.0098 108.398 79.8077C108.01 79.6024 107.686 79.3086 107.425 78.9263ZM108.584 77.3402L108.955 77.8854C109.051 78.027 109.171 78.1422 109.314 78.2311C109.458 78.32 109.613 78.366 109.781 78.3691C109.951 78.3643 110.12 78.3041 110.29 78.1884C110.465 78.0695 110.581 77.9354 110.638 77.786C110.692 77.6318 110.701 77.4734 110.667 77.3106C110.637 77.1446 110.573 76.9908 110.477 76.8492L110.106 76.3041C110.003 76.153 109.88 76.0331 109.737 75.9442C109.598 75.8521 109.446 75.8068 109.282 75.8084C109.114 75.8053 108.942 75.8632 108.768 75.982C108.603 76.0945 108.491 76.2294 108.432 76.3867C108.37 76.5394 108.354 76.6987 108.384 76.8647C108.414 77.0306 108.481 77.1892 108.584 77.3402ZM116.265 81.3947L115.894 80.8495C115.63 80.4625 115.474 80.0507 115.426 79.6141C115.382 79.1742 115.464 78.7419 115.672 78.3171C115.885 77.889 116.244 77.5031 116.749 77.1593C117.268 76.8059 117.761 76.6119 118.228 76.5773C118.699 76.5395 119.127 76.6249 119.511 76.8334C119.899 77.0387 120.225 77.3348 120.488 77.7219L120.859 78.267C121.123 78.6541 121.279 79.0659 121.327 79.5025C121.381 79.9359 121.306 80.3634 121.102 80.7851C120.899 81.2067 120.542 81.591 120.033 81.938C119.518 82.2882 119.023 82.4838 118.546 82.5248C118.07 82.5658 117.635 82.4853 117.242 82.2832C116.854 82.0779 116.528 81.7817 116.265 81.3947ZM117.43 79.8038L117.801 80.3489C117.901 80.4952 118.029 80.608 118.187 80.6873C118.344 80.7665 118.509 80.8061 118.682 80.806C118.851 80.8012 119.007 80.7506 119.148 80.6542C119.366 80.5065 119.5 80.3595 119.553 80.2133C119.607 80.0591 119.607 79.9071 119.553 79.7572C119.504 79.604 119.43 79.4543 119.33 79.308L118.959 78.7628C118.86 78.6165 118.738 78.4989 118.595 78.41C118.451 78.3211 118.297 78.2775 118.133 78.2791C117.965 78.2759 117.796 78.3322 117.626 78.4479C117.456 78.5635 117.342 78.7 117.283 78.8574C117.221 79.01 117.205 79.1693 117.235 79.3353C117.265 79.5013 117.33 79.6575 117.43 79.8038ZM114.5 72.5774L114.951 84.0608L113.458 84.2581L113.008 72.7747L114.5 72.5774ZM132.324 65.5214L132.608 65.9391C133.145 66.7274 133.516 67.5108 133.721 68.2896C133.928 69.0604 133.982 69.8042 133.883 70.521C133.781 71.233 133.536 71.8934 133.149 72.5021C132.759 73.106 132.234 73.6329 131.573 74.0827C130.907 74.5357 130.22 74.8345 129.51 74.9791C128.802 75.1158 128.096 75.1028 127.391 74.9402C126.688 74.7696 126.013 74.4483 125.367 73.9762C124.723 73.4963 124.132 72.8622 123.596 72.074L123.311 71.6562C122.775 70.868 122.401 70.0861 122.191 69.3106C121.986 68.5318 121.932 67.788 122.03 67.0792C122.129 66.3624 122.373 65.7021 122.764 65.0981C123.155 64.4862 123.684 63.9538 124.349 63.5008C125.01 63.051 125.694 62.7577 126.403 62.6211C127.112 62.4764 127.819 62.4894 128.522 62.66C129.222 62.8259 129.896 63.1472 130.546 63.6239C131.195 64.1007 131.788 64.7332 132.324 65.5214ZM130.088 67.6548L129.794 67.2229C129.447 66.7131 129.097 66.2953 128.744 65.9693C128.392 65.6353 128.041 65.394 127.692 65.2454C127.342 65.0967 126.997 65.0415 126.657 65.0796C126.318 65.1098 125.991 65.2325 125.674 65.4477C125.344 65.6726 125.103 65.9371 124.95 66.241C124.795 66.5402 124.725 66.8782 124.739 67.255C124.754 67.6318 124.852 68.0449 125.034 68.4945C125.217 68.9362 125.482 69.4119 125.829 69.9216L126.123 70.3535C126.467 70.8585 126.812 71.2796 127.159 71.6168C127.508 71.946 127.856 72.1889 128.204 72.3455C128.557 72.4988 128.903 72.5604 129.242 72.5302C129.585 72.4968 129.922 72.3677 130.252 72.1428C130.569 71.9275 130.803 71.6679 130.955 71.364C131.107 71.06 131.175 70.7173 131.157 70.3358C131.143 69.9511 131.048 69.5364 130.869 69.0915C130.692 68.6387 130.432 68.1598 130.088 67.6548ZM132.729 58.0039L139.746 68.3123L137.261 70.0038L130.244 59.6955L132.729 58.0039ZM139.657 59.5667L140.958 61.4783L136.243 64.6878L134.942 62.7763L139.657 59.5667ZM137.14 55.0016L138.446 56.9202L133.327 60.4045L132.021 58.4858L137.14 55.0016ZM140.659 52.6064L147.675 62.9148L145.19 64.6063L138.174 54.298L140.659 52.6064ZM147.586 54.1692L148.887 56.0808L144.172 59.2903L142.871 57.3788L147.586 54.1692ZM145.069 49.6041L146.375 51.5227L141.257 55.007L139.951 53.0883L145.069 49.6041Z" fill="#292C2F"/>
<rect x="1.5" y="1.5" width="157" height="103" rx="18.5" stroke="url(#paint0_linear_1297_41)" stroke-width="3" stroke-linejoin="round"/>
<defs>
<linearGradient id="paint0_linear_1297_41" x1="160" y1="106" x2="15" y2="8.5021e-06" gradientUnits="userSpaceOnUse">
<stop stop-color="#FFB803"/>
<stop offset="1" stop-color="#FFB803"/>
</linearGradient>
</defs>
</svg>
